<?xml version="1.0" encoding="UTF-8" standalone="no"?>
<svg
   sodipodi:docname="card.svg"
   inkscape:version="1.1 (c68e22c387, 2021-05-23)"
   id="svg10448"
   version="1.1"
   viewBox="0 0 158.75 105.83334"
   height="400.00003"
   width="600"
   inkscape:export-filename="/var/home/jimmac/src/git/gnome/fleet-commander.github.io/assets/card.png"
   inkscape:export-xdpi="192"
   inkscape:export-ydpi="192"
   xmlns:inkscape="http://www.inkscape.org/namespaces/inkscape"
   xmlns:sodipodi="http://sodipodi.sourceforge.net/DTD/sodipodi-0.dtd"
   xmlns="http://www.w3.org/2000/svg"
   xmlns:svg="http://www.w3.org/2000/svg"
   xmlns:rdf="http://www.w3.org/1999/02/22-rdf-syntax-ns#"
   xmlns:cc="http://creativecommons.org/ns#"
   xmlns:dc="http://purl.org/dc/elements/1.1/">
  <defs
     id="defs10442">
    <filter
       id="filter62647-5-1-29"
       inkscape:label="Better Shadow"
       style="color-interpolation-filters:sRGB"
       x="-0.14328897"
       y="-0.089033969"
       width="1.286578"
       height="1.3395338">
      <feFlood
         id="feFlood62637-04-2-75"
         result="flood"
         flood-color="rgb(0,0,0)"
         flood-opacity="0.180392" />
      <feComposite
         id="feComposite62639-87-2-64"
         result="composite1"
         operator="in"
         in2="SourceGraphic"
         in="flood" />
      <feGaussianBlur
         id="feGaussianBlur62641-1-7-63"
         result="blur"
         stdDeviation="7"
         in="composite1" />
      <feOffset
         id="feOffset62643-7-7-7"
         result="offset"
         dy="6"
         dx="0" />
      <feComposite
         id="feComposite62645-2-9-9"
         result="fbSourceGraphic"
         operator="over"
         in2="offset"
         in="SourceGraphic" />
      <feColorMatrix
         id="feColorMatrix62793-7-1-7"
         values="0 0 0 -1 0 0 0 0 -1 0 0 0 0 -1 0 0 0 0 1 0"
         in="fbSourceGraphic"
         result="fbSourceGraphicAlpha" />
      <feFlood
         in="fbSourceGraphic"
         result="flood"
         flood-color="rgb(0,0,0)"
         flood-opacity="0.34902"
         id="feFlood62795-2-4-49" />
      <feComposite
         result="composite1"
         operator="in"
         in="flood"
         id="feComposite62797-26-04-17"
         in2="fbSourceGraphic" />
      <feGaussianBlur
         result="blur"
         stdDeviation="3.5"
         in="composite1"
         id="feGaussianBlur62799-1-7-0" />
      <feOffset
         result="offset"
         dy="3"
         dx="0"
         id="feOffset62801-06-8-6" />
      <feComposite
         result="composite2"
         operator="over"
         in="fbSourceGraphic"
         id="feComposite62803-1-7-0"
         in2="offset" />
    </filter>
  </defs>
  <sodipodi:namedview
     inkscape:snap-bbox-midpoints="true"
     inkscape:snap-bbox-edge-midpoints="true"
     inkscape:bbox-nodes="true"
     inkscape:bbox-paths="true"
     inkscape:snap-bbox="true"
     inkscape:window-maximized="1"
     inkscape:window-y="0"
     inkscape:window-x="0"
     inkscape:window-height="1016"
     inkscape:window-width="1920"
     units="px"
     showgrid="false"
     inkscape:document-rotation="0"
     inkscape:current-layer="g3132"
     inkscape:document-units="px"
     inkscape:cy="153.7187"
     inkscape:cx="407.73045"
     inkscape:zoom="1"
     inkscape:pageshadow="2"
     inkscape:pageopacity="0.0"
     borderopacity="1.0"
     bordercolor="#666666"
     pagecolor="#ffffff"
     id="base"
     inkscape:snap-page="true"
     inkscape:snap-text-baseline="true"
     inkscape:snap-center="true"
     inkscape:snap-object-midpoints="true"
     inkscape:pagecheckerboard="1">
    <inkscape:grid
       originy="1.2031857e-13"
       originx="0"
       id="grid11077"
       type="xygrid" />
  </sodipodi:namedview>
  <metadata
     id="metadata10445">
    <rdf:RDF>
      <cc:Work
         rdf:about="">
        <dc:format>image/svg+xml</dc:format>
        <dc:type
           rdf:resource="http://purl.org/dc/dcmitype/StillImage" />
        <dc:title />
      </cc:Work>
    </rdf:RDF>
  </metadata>
  <g
     transform="translate(-459.7283,604.72058)"
     id="layer1"
     inkscape:groupmode="layer"
     inkscape:label="Layer 1">
    <rect
       y="-604.72058"
       x="459.7283"
       height="105.83334"
       width="158.75"
       id="rect965"
       style="fill:#ff7800;fill-opacity:1;stroke:none;stroke-width:0.26458597;stroke-linecap:butt;stroke-linejoin:miter;font-variation-settings:normal;opacity:1;vector-effect:none;stroke-miterlimit:4;stroke-dasharray:none;stroke-dashoffset:0;stroke-opacity:1;-inkscape-stroke:none;stop-color:#000000;stop-opacity:1"
       inkscape:export-xdpi="192"
       inkscape:export-ydpi="192" />
    <text
       id="text977"
       y="-642.84528"
       x="539.16895"
       style="font-style:normal;font-variant:normal;font-weight:800;font-stretch:normal;font-size:5.64444px;line-height:0%;font-family:Cantarell;-inkscape-font-specification:'Cantarell Ultra-Bold';text-align:center;letter-spacing:-0.105833px;word-spacing:0px;text-anchor:middle;display:inline;fill:#ffffff;fill-opacity:1;stroke:none;stroke-width:0.264583"
       xml:space="preserve"><tspan
         id="tspan973"
         y="-642.84528"
         x="539.16895"
         sodipodi:role="line"
         style="font-style:normal;font-variant:normal;font-weight:normal;font-stretch:normal;font-size:5.64444px;line-height:1.25;font-family:Cantarell;-inkscape-font-specification:'Cantarell Ultra-Bold';text-align:center;text-anchor:middle;fill:#ffffff;stroke-width:0.264583">Try the lastest and greatest GNOME software</tspan><tspan
         id="tspan975"
         y="-635.78973"
         x="539.11603"
         sodipodi:role="line"
         style="font-style:normal;font-variant:normal;font-weight:normal;font-stretch:normal;font-size:5.64444px;line-height:1.25;font-family:Cantarell;-inkscape-font-specification:'Cantarell Ultra-Bold';text-align:center;text-anchor:middle;fill:#ffffff;stroke-width:0.264583">in a VM or on real hardware</tspan></text>
    <g
       id="g3132"
       transform="translate(-0.27779952,5.4171987)">
      <path
         id="rect2"
         style="font-variation-settings:normal;vector-effect:none;fill:#ffffff;fill-opacity:1;stroke-width:0.119414;stroke-linecap:butt;stroke-linejoin:miter;stroke-miterlimit:4;stroke-dasharray:none;stroke-dashoffset:0;stroke-opacity:1;-inkscape-stroke:none;stop-color:#000000"
         d="m 539.38109,-574.39968 c -5.95388,0 -10.7471,4.79322 -10.7471,10.7471 0,5.95392 4.79322,10.74711 10.7471,10.74711 5.95389,0 10.74711,-4.79319 10.74711,-10.74711 0,-5.95388 -4.79322,-10.7471 -10.74711,-10.7471 z m -1.19529,4.77579 4.17943,10.15006 h -2.9853 l -1.19413,1.79118 v -10.15005 l -1.19411,8.35887 h -2.98532 z m 5.97062,0.59706 1.79119,4.17943 h -1.19414 l -0.59705,0.59708 v -4.17943 l -0.59706,3.58235 h -1.19413 z" />
      <g
         aria-label="fleet commander"
         id="text106"
         style="font-weight:bold;font-size:23.3633px;line-height:1.25;font-family:Heebo;-inkscape-font-specification:'Heebo, Bold';letter-spacing:0px;word-spacing:0px;fill:#ffbe6f;stroke-width:0.3118853;font-variation-settings:normal;opacity:1;vector-effect:none;fill-opacity:1;stroke-linecap:butt;stroke-linejoin:miter;stroke-miterlimit:4;stroke-dasharray:none;stroke-dashoffset:0;stroke-opacity:1;-inkscape-stroke:none;stop-color:#000000;stop-opacity:1"
         transform="matrix(0.43517425,0,0,0.43517425,477.83053,-548.45956)">
        <path
           d="M 49.389299,9.7327439 H 47.066244 V 9.1685733 c 0,-0.5973571 0.232306,-0.9955952 1.095155,-0.9955952 0.331865,0 0.829662,0.066373 1.161527,0.1659325 l 0.663731,-3.2854641 c -0.530985,-0.132746 -1.758885,-0.3650516 -2.920413,-0.3650516 -2.787666,0 -4.579738,1.5265793 -4.579738,4.6792974 v 0.3650516 h -1.626139 v 3.3186501 h 1.626139 v 9.424968 h 4.579738 v -9.424968 h 2.323055 z"
           style="font-weight:900;font-family:Inter;-inkscape-font-specification:'Inter, Heavy';font-variation-settings:normal;vector-effect:none;fill:#ffbe6f;fill-opacity:1;stroke-width:0.3118853;stroke-linecap:butt;stroke-linejoin:miter;stroke-miterlimit:4;stroke-dasharray:none;stroke-dashoffset:0;stroke-opacity:1;-inkscape-stroke:none;stop-color:#000000;stop-opacity:1"
           id="path5815" />
        <path
           d="M 55.727886,5.4848711 H 51.148148 V 22.476362 h 4.579738 z"
           style="font-weight:900;font-family:Inter;-inkscape-font-specification:'Inter, Heavy';font-variation-settings:normal;vector-effect:none;fill:#ffbe6f;fill-opacity:1;stroke-width:0.3118853;stroke-linecap:butt;stroke-linejoin:miter;stroke-miterlimit:4;stroke-dasharray:none;stroke-dashoffset:0;stroke-opacity:1;-inkscape-stroke:none;stop-color:#000000;stop-opacity:1"
           id="path5817" />
        <path
           d="m 64.157245,22.708668 c 3.534363,0 5.807639,-1.692512 6.239063,-4.347433 h -4.181499 c -0.265492,0.721807 -1.020485,1.128342 -1.958004,1.128342 -1.360647,0 -2.157123,-0.896036 -2.157123,-2.123937 v -0.199119 h 8.296626 v -1.061968 c 0,-4.05705 -2.488987,-6.5377417 -6.338622,-6.5377417 -3.949194,0 -6.471369,2.6217337 -6.471369,6.5709287 0,4.123423 2.488988,6.570928 6.570928,6.570928 z m -2.057563,-8.064321 c 0.02489,-1.103452 0.937519,-1.858445 2.057563,-1.858445 1.136638,0 1.999487,0.76329 2.024377,1.858445 z"
           style="font-weight:900;font-family:Inter;-inkscape-font-specification:'Inter, Heavy';font-variation-settings:normal;vector-effect:none;fill:#ffbe6f;fill-opacity:1;stroke-width:0.3118853;stroke-linecap:butt;stroke-linejoin:miter;stroke-miterlimit:4;stroke-dasharray:none;stroke-dashoffset:0;stroke-opacity:1;-inkscape-stroke:none;stop-color:#000000;stop-opacity:1"
           id="path5819" />
        <path
           d="m 78.361059,22.708668 c 3.534363,0 5.807638,-1.692512 6.239063,-4.347433 h -4.1815 c -0.265492,0.721807 -1.020485,1.128342 -1.958004,1.128342 -1.360646,0 -2.157123,-0.896036 -2.157123,-2.123937 v -0.199119 h 8.296627 v -1.061968 c 0,-4.05705 -2.488988,-6.5377417 -6.338623,-6.5377417 -3.949194,0 -6.471368,2.6217337 -6.471368,6.5709287 0,4.123423 2.488988,6.570928 6.570928,6.570928 z m -2.057564,-8.064321 c 0.02489,-1.103452 0.937519,-1.858445 2.057564,-1.858445 1.136638,0 1.999487,0.76329 2.024377,1.858445 z"
           style="font-weight:900;font-family:Inter;-inkscape-font-specification:'Inter, Heavy';font-variation-settings:normal;vector-effect:none;fill:#ffbe6f;fill-opacity:1;stroke-width:0.3118853;stroke-linecap:butt;stroke-linejoin:miter;stroke-miterlimit:4;stroke-dasharray:none;stroke-dashoffset:0;stroke-opacity:1;-inkscape-stroke:none;stop-color:#000000;stop-opacity:1"
           id="path5821" />
        <path
           d="M 94.058265,9.7327439 H 91.867956 V 6.6795853 h -4.579738 v 3.0531586 h -1.626139 v 3.3186501 h 1.626139 v 5.757859 c -0.03319,2.671514 1.617842,4.023864 4.778857,3.849635 1.037078,-0.05808 1.808664,-0.273789 2.223496,-0.398238 l -0.66373,-3.219091 c -0.17423,0.04148 -0.622247,0.132746 -0.896036,0.132746 -0.597357,0 -0.862849,-0.265492 -0.862849,-0.796476 v -5.326435 h 2.190309 z"
           style="font-weight:900;font-family:Inter;-inkscape-font-specification:'Inter, Heavy';font-variation-settings:normal;vector-effect:none;fill:#ffbe6f;fill-opacity:1;stroke-width:0.3118853;stroke-linecap:butt;stroke-linejoin:miter;stroke-miterlimit:4;stroke-dasharray:none;stroke-dashoffset:0;stroke-opacity:1;-inkscape-stroke:none;stop-color:#000000;stop-opacity:1"
           id="path5823" />
        <path
           d="m 106.70227,22.708668 c 3.77497,0 6.08973,-2.16542 6.13951,-5.542147 h -4.24788 c -0.0996,1.335757 -0.82136,2.057564 -1.82525,2.057564 -1.20302,0 -1.99119,-1.028782 -1.99119,-3.119532 0,-2.09075 0.78817,-3.119532 1.99119,-3.119532 1.01218,0 1.7008,0.721807 1.82525,2.057564 h 4.24788 c -0.0249,-3.318651 -2.38943,-5.4757737 -6.13951,-5.4757737 -4.14831,0 -6.60411,2.6549207 -6.60411,6.5709287 0,3.916007 2.4558,6.570928 6.60411,6.570928 z"
           style="font-weight:900;font-family:Inter;-inkscape-font-specification:'Inter, Heavy';font-variation-settings:normal;vector-effect:none;fill:#ffbe6f;fill-opacity:1;stroke-width:0.3118853;stroke-linecap:butt;stroke-linejoin:miter;stroke-miterlimit:4;stroke-dasharray:none;stroke-dashoffset:0;stroke-opacity:1;-inkscape-stroke:none;stop-color:#000000;stop-opacity:1"
           id="path5825" />
        <path
           d="m 120.87289,22.708668 c 4.14831,0 6.60411,-2.654921 6.60411,-6.570928 0,-3.916008 -2.4558,-6.5709287 -6.60411,-6.5709287 -4.14831,0 -6.60412,2.6549207 -6.60412,6.5709287 0,3.916007 2.45581,6.570928 6.60412,6.570928 z m 0.0332,-3.385024 c -1.22791,0 -1.95801,-1.219604 -1.95801,-3.219091 0,-1.999487 0.7301,-3.219091 1.95801,-3.219091 1.16152,0 1.89163,1.219604 1.89163,3.219091 0,1.999487 -0.73011,3.219091 -1.89163,3.219091 z"
           style="font-weight:900;font-family:Inter;-inkscape-font-specification:'Inter, Heavy';font-variation-settings:normal;vector-effect:none;fill:#ffbe6f;fill-opacity:1;stroke-width:0.3118853;stroke-linecap:butt;stroke-linejoin:miter;stroke-miterlimit:4;stroke-dasharray:none;stroke-dashoffset:0;stroke-opacity:1;-inkscape-stroke:none;stop-color:#000000;stop-opacity:1"
           id="path5827" />
        <path
           d="m 129.33541,22.476362 h 4.57973 v -7.433777 c 0,-1.111748 0.58077,-1.792071 1.52658,-1.792071 0.94582,0 1.55977,0.680323 1.55977,1.792071 v 7.433777 h 4.38062 v -7.433777 c 0,-1.111748 0.58076,-1.792071 1.52658,-1.792071 0.94581,0 1.55976,0.680323 1.55976,1.792071 v 7.433777 h 4.57974 v -8.595305 c 0,-2.613437 -1.67592,-4.3142457 -4.11513,-4.3142457 -1.89163,0 -3.41821,1.0287817 -3.84963,2.5885477 h -0.13275 c -0.26549,-1.559766 -1.69251,-2.5885477 -3.48458,-2.5885477 -1.76718,0 -3.11953,0.9955957 -3.65052,2.5885477 h -0.13274 V 9.7327439 h -4.34743 z"
           style="font-weight:900;font-family:Inter;-inkscape-font-specification:'Inter, Heavy';font-variation-settings:normal;vector-effect:none;fill:#ffbe6f;fill-opacity:1;stroke-width:0.3118853;stroke-linecap:butt;stroke-linejoin:miter;stroke-miterlimit:4;stroke-dasharray:none;stroke-dashoffset:0;stroke-opacity:1;-inkscape-stroke:none;stop-color:#000000;stop-opacity:1"
           id="path5829" />
        <path
           d="m 151.30485,22.476362 h 4.57974 v -7.433777 c 0,-1.111748 0.58076,-1.792071 1.52658,-1.792071 0.94581,0 1.55976,0.680323 1.55976,1.792071 v 7.433777 h 4.38062 v -7.433777 c 0,-1.111748 0.58077,-1.792071 1.52658,-1.792071 0.94582,0 1.55977,0.680323 1.55977,1.792071 v 7.433777 h 4.57973 v -8.595305 c 0,-2.613437 -1.67591,-4.3142457 -4.11512,-4.3142457 -1.89163,0 -3.41821,1.0287817 -3.84964,2.5885477 h -0.13274 c -0.2655,-1.559766 -1.69251,-2.5885477 -3.48459,-2.5885477 -1.76718,0 -3.11953,0.9955957 -3.65051,2.5885477 h -0.13275 V 9.7327439 h -4.34743 z"
           style="font-weight:900;font-family:Inter;-inkscape-font-specification:'Inter, Heavy';font-variation-settings:normal;vector-effect:none;fill:#ffbe6f;fill-opacity:1;stroke-width:0.3118853;stroke-linecap:butt;stroke-linejoin:miter;stroke-miterlimit:4;stroke-dasharray:none;stroke-dashoffset:0;stroke-opacity:1;-inkscape-stroke:none;stop-color:#000000;stop-opacity:1"
           id="path5831" />
        <path
           d="m 176.82526,22.675481 c 1.65932,0 2.91211,-0.56417 3.6837,-1.99119 h 0.0996 v 1.792071 h 4.28106 v -8.728051 c 0,-2.356242 -2.23179,-4.1814997 -5.87401,-4.1814997 -3.80815,0 -5.68319,1.9911907 -5.84083,4.3142457 h 4.21469 c 0.10785,-0.788179 0.68862,-1.161528 1.55976,-1.161528 0.79648,0 1.36065,0.365052 1.36065,1.028782 v 0.03319 c 0,0.738399 -0.81307,0.970705 -2.9536,1.128341 -2.63003,0.190822 -4.6793,1.25279 -4.6793,4.048754 0,2.538767 1.70911,3.716888 4.14832,3.716888 z m 1.49339,-2.887226 c -0.77988,0 -1.32746,-0.381645 -1.32746,-1.095154 0,-0.655434 0.46461,-1.161528 1.52658,-1.327461 0.7301,-0.116152 1.34405,-0.265492 1.82526,-0.464611 v 1.061968 c 0,1.161528 -0.9873,1.825258 -2.02438,1.825258 z"
           style="font-weight:900;font-family:Inter;-inkscape-font-specification:'Inter, Heavy';font-variation-settings:normal;vector-effect:none;fill:#ffbe6f;fill-opacity:1;stroke-width:0.3118853;stroke-linecap:butt;stroke-linejoin:miter;stroke-miterlimit:4;stroke-dasharray:none;stroke-dashoffset:0;stroke-opacity:1;-inkscape-stroke:none;stop-color:#000000;stop-opacity:1"
           id="path5833" />
        <path
           d="m 191.6596,15.308077 c 0.008,-1.261087 0.7218,-2.024377 1.85844,-2.024377 1.15323,0 1.83356,0.76329 1.82526,2.024377 v 7.168285 h 4.57974 v -8.130694 c 0.008,-2.771073 -1.74229,-4.7788567 -4.447,-4.7788567 -1.87503,0 -3.36013,0.9790017 -3.916,2.5885477 h -0.13275 V 9.7327439 h -4.34743 V 22.476362 h 4.57974 z"
           style="font-weight:900;font-family:Inter;-inkscape-font-specification:'Inter, Heavy';font-variation-settings:normal;vector-effect:none;fill:#ffbe6f;fill-opacity:1;stroke-width:0.3118853;stroke-linecap:butt;stroke-linejoin:miter;stroke-miterlimit:4;stroke-dasharray:none;stroke-dashoffset:0;stroke-opacity:1;-inkscape-stroke:none;stop-color:#000000;stop-opacity:1"
           id="path5835" />
        <path
           d="m 206.79261,22.642295 c 1.79207,0 3.01997,-0.962409 3.55095,-2.256683 h 0.0996 v 2.09075 h 4.54655 V 5.4848711 h -4.57973 V 11.95624 h -0.0664 c -0.4978,-1.294274 -1.69251,-2.3894287 -3.58414,-2.3894287 -2.52217,0 -4.97798,1.9248177 -4.97798,6.5377417 0,4.413805 2.28987,6.537742 5.01117,6.537742 z m 1.69251,-3.51777 c -1.26109,0 -1.99119,-1.128341 -1.99119,-3.019972 0,-1.891631 0.7301,-3.019972 1.99119,-3.019972 1.26109,0 2.02437,1.128341 2.02437,3.019972 0,1.858444 -0.76328,3.019972 -2.02437,3.019972 z"
           style="font-weight:900;font-family:Inter;-inkscape-font-specification:'Inter, Heavy';font-variation-settings:normal;vector-effect:none;fill:#ffbe6f;fill-opacity:1;stroke-width:0.3118853;stroke-linecap:butt;stroke-linejoin:miter;stroke-miterlimit:4;stroke-dasharray:none;stroke-dashoffset:0;stroke-opacity:1;-inkscape-stroke:none;stop-color:#000000;stop-opacity:1"
           id="path5837" />
        <path
           d="m 223.35266,22.708668 c 3.53437,0 5.80764,-1.692512 6.23907,-4.347433 h -4.1815 c -0.26549,0.721807 -1.02049,1.128342 -1.95801,1.128342 -1.36064,0 -2.15712,-0.896036 -2.15712,-2.123937 v -0.199119 h 8.29663 v -1.061968 c 0,-4.05705 -2.48899,-6.5377417 -6.33862,-6.5377417 -3.9492,0 -6.47137,2.6217337 -6.47137,6.5709287 0,4.123423 2.48898,6.570928 6.57092,6.570928 z m -2.05756,-8.064321 c 0.0249,-1.103452 0.93752,-1.858445 2.05756,-1.858445 1.13664,0 1.99949,0.76329 2.02438,1.858445 z"
           style="font-weight:900;font-family:Inter;-inkscape-font-specification:'Inter, Heavy';font-variation-settings:normal;vector-effect:none;fill:#ffbe6f;fill-opacity:1;stroke-width:0.3118853;stroke-linecap:butt;stroke-linejoin:miter;stroke-miterlimit:4;stroke-dasharray:none;stroke-dashoffset:0;stroke-opacity:1;-inkscape-stroke:none;stop-color:#000000;stop-opacity:1"
           id="path5839" />
        <path
           d="m 231.45016,22.476362 h 4.57974 v -6.637301 c 0,-1.460206 1.00389,-2.422615 2.35624,-2.422615 0.47291,0 1.2362,0.07467 1.69251,0.232306 V 9.7410405 c -0.36505,-0.1078561 -0.76329,-0.1742292 -1.16153,-0.1742292 -1.36064,0 -2.42261,0.7964757 -2.88722,2.5885477 h -0.13275 V 9.7327439 h -4.44699 z"
           style="font-weight:900;font-family:Inter;-inkscape-font-specification:'Inter, Heavy';font-variation-settings:normal;vector-effect:none;fill:#ffbe6f;fill-opacity:1;stroke-width:0.3118853;stroke-linecap:butt;stroke-linejoin:miter;stroke-miterlimit:4;stroke-dasharray:none;stroke-dashoffset:0;stroke-opacity:1;-inkscape-stroke:none;stop-color:#000000;stop-opacity:1"
           id="path5841" />
      </g>
    </g>
  </g>
</svg>
