<?xml version="1.0" encoding="UTF-8" standalone="no"?>
<svg
   sodipodi:docname="card.svg"
   inkscape:version="1.1 (c68e22c387, 2021-05-23)"
   id="svg10448"
   version="1.1"
   viewBox="0 0 158.75 105.83334"
   height="400.00003"
   width="600"
   inkscape:export-filename="/var/home/jimmac/src/git/gnome/fleet-commander.github.io/assets/card.png"
   inkscape:export-xdpi="192"
   inkscape:export-ydpi="192"
   xmlns:inkscape="http://www.inkscape.org/namespaces/inkscape"
   xmlns:sodipodi="http://sodipodi.sourceforge.net/DTD/sodipodi-0.dtd"
   xmlns="http://www.w3.org/2000/svg"
   xmlns:svg="http://www.w3.org/2000/svg"
   xmlns:rdf="http://www.w3.org/1999/02/22-rdf-syntax-ns#"
   xmlns:cc="http://creativecommons.org/ns#"
   xmlns:dc="http://purl.org/dc/elements/1.1/">
  <defs
     id="defs10442">
    <filter
       id="filter62647-5-1-29"
       inkscape:label="Better Shadow"
       style="color-interpolation-filters:sRGB"
       x="-0.14328897"
       y="-0.089033969"
       width="1.286578"
       height="1.3395338">
      <feFlood
         id="feFlood62637-04-2-75"
         result="flood"
         flood-color="rgb(0,0,0)"
         flood-opacity="0.180392" />
      <feComposite
         id="feComposite62639-87-2-64"
         result="composite1"
         operator="in"
         in2="SourceGraphic"
         in="flood" />
      <feGaussianBlur
         id="feGaussianBlur62641-1-7-63"
         result="blur"
         stdDeviation="7"
         in="composite1" />
      <feOffset
         id="feOffset62643-7-7-7"
         result="offset"
         dy="6"
         dx="0" />
      <feComposite
         id="feComposite62645-2-9-9"
         result="fbSourceGraphic"
         operator="over"
         in2="offset"
         in="SourceGraphic" />
      <feColorMatrix
         id="feColorMatrix62793-7-1-7"
         values="0 0 0 -1 0 0 0 0 -1 0 0 0 0 -1 0 0 0 0 1 0"
         in="fbSourceGraphic"
         result="fbSourceGraphicAlpha" />
      <feFlood
         in="fbSourceGraphic"
         result="flood"
         flood-color="rgb(0,0,0)"
         flood-opacity="0.34902"
         id="feFlood62795-2-4-49" />
      <feComposite
         result="composite1"
         operator="in"
         in="flood"
         id="feComposite62797-26-04-17"
         in2="fbSourceGraphic" />
      <feGaussianBlur
         result="blur"
         stdDeviation="3.5"
         in="composite1"
         id="feGaussianBlur62799-1-7-0" />
      <feOffset
         result="offset"
         dy="3"
         dx="0"
         id="feOffset62801-06-8-6" />
      <feComposite
         result="composite2"
         operator="over"
         in="fbSourceGraphic"
         id="feComposite62803-1-7-0"
         in2="offset" />
    </filter>
  </defs>
  <sodipodi:namedview
     inkscape:snap-bbox-midpoints="true"
     inkscape:snap-bbox-edge-midpoints="true"
     inkscape:bbox-nodes="true"
     inkscape:bbox-paths="true"
     inkscape:snap-bbox="true"
     inkscape:window-maximized="1"
     inkscape:window-y="0"
     inkscape:window-x="0"
     inkscape:window-height="1016"
     inkscape:window-width="1920"
     units="px"
     showgrid="false"
     inkscape:document-rotation="0"
     inkscape:current-layer="g3132"
     inkscape:document-units="px"
     inkscape:cy="153.7187"
     inkscape:cx="407.73045"
     inkscape:zoom="1"
     inkscape:pageshadow="2"
     inkscape:pageopacity="0.0"
     borderopacity="1.0"
     bordercolor="#666666"
     pagecolor="#ffffff"
     id="base"
     inkscape:snap-page="true"
     inkscape:snap-text-baseline="true"
     inkscape:snap-center="true"
     inkscape:snap-object-midpoints="true"
     inkscape:pagecheckerboard="1">
    <inkscape:grid
       originy="1.2031857e-13"
       originx="0"
       id="grid11077"
       type="xygrid" />
  </sodipodi:namedview>
  <metadata
     id="metadata10445">
    <rdf:RDF>
      <cc:Work
         rdf:about="">
        <dc:format>image/svg+xml</dc:format>
        <dc:type
           rdf:resource="http://purl.org/dc/dcmitype/StillImage" />
        <dc:title />
      </cc:Work>
    </rdf:RDF>
  </metadata>
  <g
     transform="translate(-459.7283,604.72058)"
     id="layer1"
     inkscape:groupmode="layer"
     inkscape:label="Layer 1">
    <rect
       y="-604.72058"
       x="459.7283"
       height="105.83334"
       width="158.75"
       id="rect965"
       style="fill:#ff7800;fill-opacity:1;stroke:none;stroke-width:0.26458597;stroke-linecap:butt;stroke-linejoin:miter;font-variation-settings:normal;opacity:1;vector-effect:none;stroke-miterlimit:4;stroke-dasharray:none;stroke-dashoffset:0;stroke-opacity:1;-inkscape-stroke:none;stop-color:#000000;stop-opacity:1"
       inkscape:export-xdpi="192"
       inkscape:export-ydpi="192" />
    <text
       id="text977"
       y="-642.84528"
       x="539.16895"
       style="font-style:normal;font-variant:normal;font-weight:800;font-stretch:normal;font-size:5.64444px;line-height:0%;font-family:Cantarell;-inkscape-font-specification:'Cantarell Ultra-Bold';text-align:center;letter-spacing:-0.105833px;word-spacing:0px;text-anchor:middle;display:inline;fill:#ffffff;fill-opacity:1;stroke:none;stroke-width:0.264583"
       xml:space="preserve"><tspan
         id="tspan973"
         y="-642.84528"
         x="539.16895"
         sodipodi:role="line"
         style="font-style:normal;font-variant:normal;font-weight:normal;font-stretch:normal;font-size:5.64444px;line-height:1.25;font-family:Cantarell;-inkscape-font-specification:'Cantarell Ultra-Bold';text-align:center;text-anchor:middle;fill:#ffffff;stroke-width:0.264583">Try the lastest and greatest GNOME software</tspan><tspan
         id="tspan975"
         y="-635.78973"
         x="539.11603"
         sodipodi:role="line"
         style="font-style:normal;font-variant:normal;font-weight:normal;font-stretch:normal;font-size:5.64444px;line-height:1.25;font-family:Cantarell;-inkscape-font-specification:'Cantarell Ultra-Bold';text-align:center;text-anchor:middle;fill:#ffffff;stroke-width:0.264583">in a VM or on real hardware</tspan></text>
    <g
       id="g3132"
       transform="translate(-0.27779952,5.4171987)">
      <path
         id="rect2"
         style="font-variation-settings:normal;vector-effect:none;fill:#ffffff;fill-opacity:1;stroke-width:0.119414;stroke-linecap:butt;stroke-linejoin:miter;stroke-miterlimit:4;stroke-dasharray:none;stroke-dashoffset:0;stroke-opacity:1;-inkscape-stroke:none;stop-color:#000000"
         d="m 539.38109,-574.39968 c -5.95388,0 -10.7471,4.79322 -10.7471,10.7471 0,5.95392 4.79322,10.74711 10.7471,10.74711 5.95389,0 10.74711,-4.79319 10.74711,-10.74711 0,-5.95388 -4.79322,-10.7471 -10.74711,-10.7471 z m -1.19529,4.77579 4.17943,10.15006 h -2.9853 l -1.19413,1.79118 v -10.15005 l -1.19411,8.35887 h -2.98532 z m 5.97062,0.59706 1.79119,4.17943 h -1.19414 l -0.59705,0.59708 v -4.17943 l -0.59706,3.58235 h -1.19413 z" />
      <g
         aria-label="fleet commander"
         id="text3097"
         style="font-weight:bold;font-size:23.3633px;line-height:1.25;font-family:Heebo;-inkscape-font-specification:'Heebo, Bold';letter-spacing:0px;word-spacing:0px;fill:#ffbe6f;stroke-width:0.28306"
         transform="matrix(0.47949004,0,0,0.47949004,476.84856,-548.8911)"
         inkscape:export-filename="/var/home/jimmac/src/git/gnome/fleet-commander.github.io/assets/card.png"
         inkscape:export-xdpi="96"
         inkscape:export-ydpi="96">
        <path
           d="M 42.70533,22.257549 V 8.8647199 q 0,-2.1218622 1.232049,-3.2398327 1.243457,-1.1293782 3.353911,-1.1293782 0.467722,0 0.889813,0.068447 0.433499,0.057039 0.832774,0.1597101 l -0.02282,2.6580317 Q 48.774312,7.3360665 48.523339,7.3132507 48.283774,7.290435 47.98717,7.290435 q -0.866998,0 -1.346128,0.410683 -0.47913,0.3992752 -0.47913,1.1636019 V 22.257549 Z m 5.886456,-9.833576 H 40.89148 V 9.9142432 h 7.700306 z"
           id="path13"
           style="fill:#ffbe6f" />
        <path
           d="M 53.862218,22.257549 H 50.405636 V 4.735074 h 3.456582 z"
           id="path15"
           style="fill:#ffbe6f" />
        <path
           d="m 62.258404,22.485707 q -1.950745,0 -3.342504,-0.809959 -1.380351,-0.809958 -2.121862,-2.167493 -0.730103,-1.357536 -0.730103,-3.000268 V 16.06308 q 0,-1.848073 0.69588,-3.285464 0.707287,-1.448798 2.007783,-2.270164 1.300496,-0.8213661 3.102938,-0.8213661 1.791035,0 3.011676,0.7529191 1.220641,0.752919 1.848073,2.121862 0.627433,1.357536 0.627433,3.194201 v 1.460207 h -9.844985 v -2.315796 h 6.45685 V 14.62569 q 0,-0.63884 -0.228157,-1.129378 -0.228157,-0.490538 -0.69588,-0.764327 -0.456314,-0.273789 -1.197825,-0.273789 -0.844182,0 -1.357536,0.47913 -0.513354,0.479131 -0.752919,1.289089 -0.228157,0.809958 -0.228157,1.836665 v 0.444907 q 0,0.946853 0.353644,1.665548 0.353644,0.718695 1.0153,1.129378 0.661655,0.399275 1.5971,0.399275 0.878405,0 1.642732,-0.31942 0.764327,-0.330828 1.300496,-1.026707 l 1.665548,1.905113 q -0.581801,0.832773 -1.802442,1.528653 -1.209233,0.69588 -3.023083,0.69588 z"
           id="path17"
           style="fill:#ffbe6f" />
        <path
           d="m 74.921131,22.485707 q -1.950744,0 -3.342503,-0.809959 -1.380352,-0.809958 -2.121863,-2.167493 -0.730103,-1.357536 -0.730103,-3.000268 V 16.06308 q 0,-1.848073 0.69588,-3.285464 0.707287,-1.448798 2.007784,-2.270164 1.300496,-0.8213661 3.102938,-0.8213661 1.791034,0 3.011675,0.7529191 1.220641,0.752919 1.848074,2.121862 0.627432,1.357536 0.627432,3.194201 v 1.460207 H 70.175461 V 14.899479 H 76.63231 V 14.62569 q 0,-0.63884 -0.228157,-1.129378 -0.228157,-0.490538 -0.695879,-0.764327 -0.456315,-0.273789 -1.197826,-0.273789 -0.844182,0 -1.357535,0.47913 -0.513354,0.479131 -0.752919,1.289089 -0.228157,0.809958 -0.228157,1.836665 v 0.444907 q 0,0.946853 0.353643,1.665548 0.353644,0.718695 1.0153,1.129378 0.661656,0.399275 1.5971,0.399275 0.878406,0 1.642733,-0.31942 0.764326,-0.330828 1.300496,-1.026707 l 1.665548,1.905113 q -0.581801,0.832773 -1.802443,1.528653 -1.209233,0.69588 -3.023083,0.69588 z"
           id="path19"
           style="fill:#ffbe6f" />
        <path
           d="M 87.994541,12.423973 H 80.704918 V 9.9142432 h 7.289623 z M 85.906903,6.8683441 V 18.401692 q 0,0.501946 0.125486,0.775735 0.136895,0.273788 0.422091,0.376459 0.285197,0.102671 0.707288,0.102671 0.308012,0 0.547577,-0.02282 0.239565,-0.02282 0.410683,-0.05704 l -0.01141,2.600992 q -0.422091,0.148302 -0.924037,0.228157 -0.490538,0.07986 -1.106562,0.07986 -1.106563,0 -1.927929,-0.365052 -0.809958,-0.376459 -1.254865,-1.186418 -0.433498,-0.821366 -0.433498,-2.144678 V 6.8683441 Z"
           id="path21"
           style="fill:#ffbe6f" />
        <path
           d="m 100.73712,19.713596 q 0.5818,0 1.02671,-0.216749 0.44491,-0.21675 0.68447,-0.616025 0.25098,-0.399275 0.26238,-0.946852 h 3.23984 q -0.0114,1.33472 -0.69588,2.361427 -0.68448,1.026708 -1.84808,1.608509 -1.1636,0.581801 -2.6124,0.581801 -1.916518,0 -3.194199,-0.832774 -1.266273,-0.832774 -1.905113,-2.247349 -0.627432,-1.414575 -0.627432,-3.159978 v -0.308012 q 0,-1.756811 0.627432,-3.171385 0.63884,-1.414575 1.905113,-2.247349 1.277681,-0.8327741 3.182789,-0.8327741 1.52866,0 2.68085,0.5932091 1.1636,0.581801 1.81385,1.676955 0.66166,1.083747 0.67307,2.600993 h -3.23984 q -0.0114,-0.581801 -0.23956,-1.049523 -0.21675,-0.479131 -0.66166,-0.764327 -0.4449,-0.285197 -1.09515,-0.285197 -0.912632,0 -1.391762,0.490538 -0.467722,0.490538 -0.63884,1.289089 -0.171118,0.787142 -0.171118,1.699771 v 0.308012 q 0,0.924037 0.15971,1.722587 0.171118,0.787143 0.650248,1.266273 0.490538,0.47913 1.414572,0.47913 z"
           id="path23"
           style="fill:#ffbe6f" />
        <path
           d="m 107.26242,15.971818 q 0,-1.802443 0.68447,-3.217017 0.68447,-1.425983 1.99637,-2.247349 1.31191,-0.8213661 3.1828,-0.8213661 1.8937,0 3.20561,0.8213661 1.32331,0.821366 1.99637,2.247349 0.68447,1.414574 0.68447,3.217017 v 0.239565 q 0,1.791034 -0.68447,3.217017 -0.67306,1.425982 -1.98497,2.247348 -1.3119,0.809959 -3.1942,0.809959 -1.8823,0 -3.20561,-0.809959 -1.3119,-0.821366 -1.99637,-2.247348 -0.68447,-1.425983 -0.68447,-3.217017 z m 3.45658,0.239565 q 0,0.969668 0.22815,1.768218 0.23957,0.798551 0.76433,1.266273 0.53617,0.467722 1.43739,0.467722 0.88982,0 1.41458,-0.467722 0.53617,-0.467722 0.76432,-1.266273 0.23957,-0.79855 0.23957,-1.768218 v -0.239565 q 0,-0.946853 -0.23957,-1.745403 -0.22815,-0.809958 -0.76432,-1.289089 -0.52476,-0.47913 -1.43739,-0.47913 -0.88982,0 -1.42599,0.47913 -0.52476,0.479131 -0.75292,1.289089 -0.22815,0.79855 -0.22815,1.745403 z"
           id="path25"
           style="fill:#ffbe6f" />
        <path
           d="m 124.43125,22.257549 h -3.44518 V 9.9142432 h 3.23984 l 0.20534,2.5781768 z m -1.42598,-6.536704 q 0,-1.756811 0.54757,-3.114347 0.54758,-1.357535 1.61992,-2.13327 1.08375,-0.7871421 2.68085,-0.7871421 1.64273,0 2.68084,1.0153001 1.03812,1.003891 1.03812,3.319687 v 8.236476 h -3.44518 v -7.814385 q 0,-0.787142 -0.21674,-1.209233 -0.20535,-0.433499 -0.60462,-0.593209 -0.39928,-0.15971 -0.95826,-0.15971 -0.60462,0 -1.06093,0.239565 -0.45632,0.228157 -0.75292,0.661656 -0.29661,0.433499 -0.44491,1.026708 -0.13689,0.581801 -0.13689,1.266272 z m 7.02724,-0.136895 q -0.0114,-1.676955 0.51335,-3.011675 0.53617,-1.33472 1.5971,-2.110454 1.06093,-0.7757351 2.63522,-0.7757351 1.18642,0 2.07623,0.4563141 0.88981,0.456315 1.38035,1.49443 0.49054,1.038116 0.49054,2.783518 v 7.837201 h -3.46799 v -7.848608 q 0,-0.798551 -0.21675,-1.209234 -0.20534,-0.410683 -0.60462,-0.558985 -0.38787,-0.15971 -0.93544,-0.15971 -0.5704,0 -0.99249,0.216749 -0.41068,0.21675 -0.69588,0.627433 -0.27378,0.399275 -0.42209,0.946852 -0.13689,0.53617 -0.13689,1.17501 z"
           id="path27"
           style="fill:#ffbe6f" />
        <path
           d="m 144.62317,22.257549 h -3.44518 V 9.9142432 h 3.23983 l 0.20535,2.5781768 z m -1.42599,-6.536704 q 0,-1.756811 0.54758,-3.114347 0.54758,-1.357535 1.61992,-2.13327 1.08374,-0.7871421 2.68084,-0.7871421 1.64274,0 2.68085,1.0153001 1.03812,1.003891 1.03812,3.319687 v 8.236476 h -3.44518 v -7.814385 q 0,-0.787142 -0.21675,-1.209233 -0.20534,-0.433499 -0.60461,-0.593209 -0.39928,-0.15971 -0.95826,-0.15971 -0.60462,0 -1.06094,0.239565 -0.45631,0.228157 -0.75291,0.661656 -0.29661,0.433499 -0.44491,1.026708 -0.1369,0.581801 -0.1369,1.266272 z m 7.02725,-0.136895 q -0.0114,-1.676955 0.51335,-3.011675 0.53617,-1.33472 1.5971,-2.110454 1.06093,-0.7757351 2.63522,-0.7757351 1.18641,0 2.07623,0.4563141 0.88981,0.456315 1.38035,1.49443 0.49054,1.038116 0.49054,2.783518 v 7.837201 h -3.46799 v -7.848608 q 0,-0.798551 -0.21675,-1.209234 -0.20535,-0.410683 -0.60462,-0.558985 -0.38787,-0.15971 -0.93544,-0.15971 -0.5704,0 -0.99249,0.216749 -0.41068,0.21675 -0.69588,0.627433 -0.27379,0.399275 -0.42209,0.946852 -0.13689,0.53617 -0.13689,1.17501 z"
           id="path29"
           style="fill:#ffbe6f" />
        <path
           d="m 167.97506,14.032481 q 0,-0.832774 -0.41068,-1.323312 -0.41069,-0.490538 -1.31191,-0.490538 -0.51335,0 -0.88981,0.171118 -0.37646,0.171118 -0.57039,0.490538 -0.19394,0.308012 -0.19394,0.764327 h -3.44517 q 0,-1.095155 0.65025,-1.984968 0.65025,-0.901221 1.83666,-1.437391 1.18642,-0.5361691 2.79493,-0.5361691 1.43739,0 2.56677,0.4905381 1.12938,0.47913 1.77962,1.448798 0.65025,0.969669 0.65025,2.429875 v 5.156353 q 0,1.095155 0.12549,1.733995 0.13689,0.63884 0.37646,1.117971 v 0.193933 h -3.46799 q -0.25097,-0.524761 -0.37646,-1.311904 -0.11408,-0.787142 -0.11408,-1.5971 z m 0.46772,2.658032 h -1.75681 q -1.25486,0 -1.81385,0.547577 -0.55898,0.53617 -0.55898,1.300496 0,0.581801 0.41068,0.958261 0.41068,0.376459 1.10656,0.376459 0.7187,0 1.23205,-0.273788 0.52476,-0.285197 0.79855,-0.673064 0.2852,-0.399275 0.27379,-0.730103 l 0.88981,1.483022 q -0.18252,0.456314 -0.49053,0.946852 -0.29661,0.490538 -0.76433,0.912629 -0.46772,0.422091 -1.14079,0.684472 -0.66165,0.262381 -1.56287,0.262381 -1.16361,0 -2.12187,-0.467723 -0.95826,-0.47913 -1.51724,-1.311904 -0.55899,-0.844182 -0.55899,-1.927928 0,-1.939337 1.43739,-3.000268 1.43739,-1.072339 4.27795,-1.072339 h 1.83667 z"
           id="path31"
           style="fill:#ffbe6f" />
        <path
           d="m 177.24965,22.257549 h -3.44518 V 9.9142432 h 3.23984 l 0.20534,2.6352158 z m -1.41458,-6.536704 q 0,-1.87089 0.60462,-3.217017 0.60462,-1.357536 1.69977,-2.087639 1.09515,-0.7301031 2.54395,-0.7301031 1.16361,0 2.0306,0.4563141 0.87841,0.456315 1.36895,1.49443 0.50194,1.026708 0.50194,2.794926 v 7.825793 h -3.45658 v -7.848608 q 0,-0.764327 -0.22816,-1.17501 -0.21675,-0.422091 -0.63884,-0.581801 -0.42209,-0.171118 -1.03811,-0.171118 -0.62744,0 -1.09516,0.239565 -0.45631,0.228157 -0.76432,0.661656 -0.29661,0.433499 -0.44491,1.026708 -0.1483,0.581801 -0.1483,1.266272 z"
           id="path33"
           style="fill:#ffbe6f" />
        <path
           d="m 194.23596,4.735074 h 3.46799 v 17.522475 h -3.11435 l -0.35364,-2.749294 z m -7.74594,11.259559 q 0,-1.882297 0.55899,-3.296872 0.57039,-1.425982 1.64273,-2.213125 1.08375,-0.7985501 2.63522,-0.7985501 1.44879,0 2.41846,0.8327741 0.98108,0.821366 1.54006,2.258756 0.5704,1.425983 0.78715,3.239833 v 0.285197 q -0.21675,1.722587 -0.78715,3.125754 -0.55898,1.403167 -1.54006,2.23594 -0.96967,0.821367 -2.44128,0.821367 -1.52865,0 -2.6124,-0.809959 -1.07234,-0.821366 -1.64273,-2.235941 -0.55899,-1.414574 -0.55899,-3.205609 z m 3.44518,0.239565 q 0,0.958261 0.21675,1.745403 0.21675,0.787143 0.70728,1.254865 0.49054,0.456314 1.32332,0.456314 0.82136,0 1.34612,-0.365051 0.52477,-0.37646 0.79855,-1.038116 0.27379,-0.661655 0.31942,-1.528653 v -1.186418 q -0.0228,-0.741511 -0.19393,-1.311904 -0.15971,-0.581801 -0.45631,-0.969668 -0.2852,-0.399275 -0.74151,-0.604617 -0.44491,-0.205341 -1.04953,-0.205341 -0.82136,0 -1.32331,0.467722 -0.50195,0.456315 -0.7301,1.254865 -0.21675,0.787143 -0.21675,1.791034 z"
           id="path35"
           style="fill:#ffbe6f" />
        <path
           d="m 205.94042,22.485707 q -1.95075,0 -3.34251,-0.809959 -1.38035,-0.809958 -2.12186,-2.167493 -0.7301,-1.357536 -0.7301,-3.000268 V 16.06308 q 0,-1.848073 0.69588,-3.285464 0.70729,-1.448798 2.00778,-2.270164 1.3005,-0.8213661 3.10294,-0.8213661 1.79104,0 3.01168,0.7529191 1.22064,0.752919 1.84807,2.121862 0.62743,1.357536 0.62743,3.194201 v 1.460207 h -9.84498 v -2.315796 h 6.45685 V 14.62569 q 0,-0.63884 -0.22816,-1.129378 -0.22816,-0.490538 -0.69588,-0.764327 -0.45631,-0.273789 -1.19782,-0.273789 -0.84419,0 -1.35754,0.47913 -0.51335,0.479131 -0.75292,1.289089 -0.22816,0.809958 -0.22816,1.836665 v 0.444907 q 0,0.946853 0.35365,1.665548 0.35364,0.718695 1.0153,1.129378 0.66165,0.399275 1.5971,0.399275 0.8784,0 1.64273,-0.31942 0.76433,-0.330828 1.3005,-1.026707 l 1.66554,1.905113 q -0.5818,0.832773 -1.80244,1.528653 -1.20923,0.69588 -3.02308,0.69588 z"
           id="path37"
           style="fill:#ffbe6f" />
        <path
           d="m 216.28736,22.257549 h -3.44518 V 9.9142432 h 3.23984 l 0.20534,2.8405578 z m 3.60488,-9.103473 q -0.25097,-0.03422 -0.59321,-0.05704 -0.34223,-0.03422 -0.61602,-0.03422 -0.90122,0 -1.48302,0.285196 -0.5818,0.273789 -0.867,0.821366 -0.2852,0.547578 -0.30801,1.357536 l -0.67307,-0.296604 q 0,-1.608509 0.41069,-2.863374 0.41068,-1.254864 1.20923,-1.962152 0.79855,-0.7186951 1.93934,-0.7186951 0.26238,0 0.54757,0.034224 0.29661,0.034224 0.47913,0.1140786 z"
           id="path39"
           style="fill:#ffbe6f" />
      </g>
    </g>
  </g>
</svg>
